<svg xmlns="http://www.w3.org/2000/svg" width="1440" height="900" viewBox="0 0 1440 900" role="img" aria-labelledby="title desc">
  <title id="title">Claude AI Harness screenshot</title>
  <desc id="desc">A Claude-inspired document chat UI with sidebar, chat composer, message stream and right-side document preview.</desc>
  <defs>
    <filter id="shadow" x="-20%" y="-20%" width="140%" height="140%">
      <feDropShadow dx="0" dy="16" stdDeviation="18" flood-color="#2d251d" flood-opacity=".14"/>
    </filter>
    <linearGradient id="page" x1="0" x2="1" y1="0" y2="1">
      <stop stop-color="#fbf7ef"/>
      <stop offset="1" stop-color="#f4eee5"/>
    </linearGradient>
  </defs>
  <rect width="1440" height="900" fill="#f7f3ec"/>
  <rect width="280" height="900" fill="#eee7dd"/>
  <line x1="280" y1="0" x2="280" y2="900" stroke="#d8cbbb"/>
  <g transform="translate(22 22)">
    <g fill="#c96342">
      <ellipse cx="0" cy="-12" rx="4.5" ry="13" transform="rotate(0)"/>
      <ellipse cx="0" cy="-12" rx="4.5" ry="13" transform="rotate(45)"/>
      <ellipse cx="0" cy="-12" rx="4.5" ry="13" transform="rotate(90)"/>
      <ellipse cx="0" cy="-12" rx="4.5" ry="13" transform="rotate(135)"/>
      <ellipse cx="0" cy="-12" rx="4.5" ry="13" transform="rotate(180)"/>
      <ellipse cx="0" cy="-12" rx="4.5" ry="13" transform="rotate(225)"/>
      <ellipse cx="0" cy="-12" rx="4.5" ry="13" transform="rotate(270)"/>
      <ellipse cx="0" cy="-12" rx="4.5" ry="13" transform="rotate(315)"/>
    </g>
    <circle r="7" fill="#eee7dd"/>
  </g>
  <text x="56" y="33" font-family="-apple-system,BlinkMacSystemFont,Segoe UI,sans-serif" font-size="17" font-weight="700" fill="#201913">Claude</text>
  <rect x="10" y="56" width="260" height="40" rx="8" fill="#fffaf2" opacity=".86"/>
  <text x="22" y="81" font-family="-apple-system,BlinkMacSystemFont,Segoe UI,sans-serif" font-size="14" fill="#31271e">＋ 新对话</text>
  <text x="18" y="126" font-family="-apple-system,BlinkMacSystemFont,Segoe UI,sans-serif" font-size="11" font-weight="700" fill="#9a9084">最近</text>
  <rect x="10" y="136" width="256" height="32" rx="8" fill="#fffaf2" opacity=".82"/>
  <text x="20" y="157" font-family="-apple-system,BlinkMacSystemFont,Segoe UI,sans-serif" font-size="13" fill="#3c3026">产品说明文档</text>
  <text x="18" y="198" font-family="-apple-system,BlinkMacSystemFont,Segoe UI,sans-serif" font-size="11" font-weight="700" fill="#9a9084">文档</text>
  <rect x="10" y="208" width="256" height="54" rx="8" fill="#fffaf2" opacity=".62"/>
  <text x="20" y="230" font-family="-apple-system,BlinkMacSystemFont,Segoe UI,sans-serif" font-size="13" fill="#3c3026">项目 PRD</text>
  <text x="20" y="248" font-family="-apple-system,BlinkMacSystemFont,Segoe UI,sans-serif" font-size="11" fill="#8d8276">Claude 生成</text>

  <text x="306" y="32" font-family="-apple-system,BlinkMacSystemFont,Segoe UI,sans-serif" font-size="15" font-weight="700" fill="#6c5d50">Claude Opus 4.7</text>
  <text x="1290" y="32" font-family="-apple-system,BlinkMacSystemFont,Segoe UI,sans-serif" font-size="13" fill="#6c5d50">文档</text>
  <text x="1338" y="32" font-family="-apple-system,BlinkMacSystemFont,Segoe UI,sans-serif" font-size="13" fill="#6c5d50">复制文档</text>

  <g transform="translate(340 98)">
    <g>
      <circle cx="14" cy="14" r="14" fill="#f4efe7"/>
      <path d="M14 4 C17 9 22 11 27 14 C22 17 17 19 14 24 C11 19 6 17 1 14 C6 11 11 9 14 4Z" fill="#c96342"/>
    </g>
    <rect x="42" y="0" width="540" height="86" rx="12" fill="#fffaf2"/>
    <text x="62" y="30" font-family="-apple-system,BlinkMacSystemFont,Segoe UI,sans-serif" font-size="15" font-weight="700" fill="#2d251d">可以。我先把这份资料整理成一份可复制到 Google Docs 的文档。</text>
    <text x="62" y="58" font-family="-apple-system,BlinkMacSystemFont,Segoe UI,sans-serif" font-size="13" fill="#6f6256">我会保留背景、目标、核心功能、风险和下一步，并生成右侧预览。</text>
  </g>

  <g transform="translate(508 234)">
    <rect width="420" height="78" rx="18" fill="#ebe3d6"/>
    <rect x="16" y="16" width="90" height="46" rx="10" fill="#d7c9b6"/>
    <circle cx="46" cy="39" r="13" fill="#bd5d3a"/>
    <path d="M72 50 L92 29 L106 50 Z" fill="#8f7f70"/>
    <text x="124" y="46" font-family="-apple-system,BlinkMacSystemFont,Segoe UI,sans-serif" font-size="15" fill="#31271e">看图，并整理成一份发布说明</text>
  </g>

  <g transform="translate(340 380)">
    <circle cx="14" cy="14" r="14" fill="#f4efe7"/>
    <path d="M14 4 C17 9 22 11 27 14 C22 17 17 19 14 24 C11 19 6 17 1 14 C6 11 11 9 14 4Z" fill="#c96342"/>
    <text x="42" y="22" font-family="-apple-system,BlinkMacSystemFont,Segoe UI,sans-serif" font-size="15" fill="#2d251d">已创建《项目 PRD》。右侧可以预览、复制或下载。</text>
    <rect x="42" y="40" width="82" height="28" rx="8" fill="#f0e6d9"/>
    <text x="64" y="59" font-family="-apple-system,BlinkMacSystemFont,Segoe UI,sans-serif" font-size="12" font-weight="700" fill="#6c5d50">复制</text>
  </g>

  <g filter="url(#shadow)">
    <rect x="480" y="792" width="760" height="94" rx="20" fill="#fffaf2" stroke="#ddd2c3"/>
    <text x="503" y="828" font-family="-apple-system,BlinkMacSystemFont,Segoe UI,sans-serif" font-size="14" fill="#9a9084">发消息给 Claude</text>
    <text x="504" y="864" font-family="-apple-system,BlinkMacSystemFont,Segoe UI,sans-serif" font-size="18" fill="#766b5f">⌘</text>
    <rect x="1196" y="842" width="34" height="34" rx="10" fill="#2d251d"/>
    <path d="M1213 866 L1213 852 M1207 858 L1213 852 L1219 858" stroke="#fffaf2" stroke-width="2" stroke-linecap="round" stroke-linejoin="round"/>
  </g>

  <g transform="translate(976 70)">
    <rect width="440" height="760" rx="14" fill="#fbf7ef" stroke="#ddd2c3"/>
    <rect width="440" height="58" rx="14" fill="#f1e8dc"/>
    <text x="18" y="26" font-family="-apple-system,BlinkMacSystemFont,Segoe UI,sans-serif" font-size="15" font-weight="700" fill="#2d251d">项目 PRD</text>
    <text x="18" y="45" font-family="-apple-system,BlinkMacSystemFont,Segoe UI,sans-serif" font-size="12" fill="#766b5f">Claude 生成 · document.md</text>
    <rect x="278" y="14" width="54" height="30" rx="8" fill="#fffaf2"/>
    <text x="292" y="34" font-family="-apple-system,BlinkMacSystemFont,Segoe UI,sans-serif" font-size="12" font-weight="700" fill="#2d251d">预览</text>
    <rect x="336" y="14" width="54" height="30" rx="8" fill="#eadfd1"/>
    <text x="350" y="34" font-family="-apple-system,BlinkMacSystemFont,Segoe UI,sans-serif" font-size="12" font-weight="700" fill="#766b5f">源码</text>
    <text x="408" y="34" font-family="-apple-system,BlinkMacSystemFont,Segoe UI,sans-serif" font-size="20" fill="#766b5f">×</text>
    <rect x="14" y="72" width="412" height="672" rx="10" fill="url(#page)" stroke="#e4d7c6"/>
    <text x="44" y="124" font-family="-apple-system,BlinkMacSystemFont,Segoe UI,sans-serif" font-size="30" font-weight="750" fill="#2d251d">项目 PRD</text>
    <line x1="44" y1="146" x2="382" y2="146" stroke="#eadfcc"/>
    <text x="44" y="188" font-family="-apple-system,BlinkMacSystemFont,Segoe UI,sans-serif" font-size="20" font-weight="700" fill="#2d251d">背景</text>
    <rect x="44" y="210" width="338" height="10" rx="5" fill="#d8cbbb"/>
    <rect x="44" y="232" width="304" height="10" rx="5" fill="#e0d5c7"/>
    <rect x="44" y="254" width="356" height="10" rx="5" fill="#e0d5c7"/>
    <text x="44" y="314" font-family="-apple-system,BlinkMacSystemFont,Segoe UI,sans-serif" font-size="20" font-weight="700" fill="#2d251d">核心功能</text>
    <rect x="44" y="342" width="340" height="42" rx="8" fill="#f3eadc"/>
    <rect x="44" y="384" width="340" height="42" rx="8" fill="#fffaf2"/>
    <rect x="44" y="426" width="340" height="42" rx="8" fill="#fffaf2"/>
    <line x1="156" y1="342" x2="156" y2="468" stroke="#e4d7c6"/>
    <line x1="270" y1="342" x2="270" y2="468" stroke="#e4d7c6"/>
    <text x="62" y="368" font-family="-apple-system,BlinkMacSystemFont,Segoe UI,sans-serif" font-size="13" font-weight="700" fill="#3f342a">模块</text>
    <text x="174" y="368" font-family="-apple-system,BlinkMacSystemFont,Segoe UI,sans-serif" font-size="13" font-weight="700" fill="#3f342a">说明</text>
    <text x="288" y="368" font-family="-apple-system,BlinkMacSystemFont,Segoe UI,sans-serif" font-size="13" font-weight="700" fill="#3f342a">状态</text>
    <rect x="44" y="520" width="356" height="72" rx="8" fill="#f8f1e8"/>
    <rect x="44" y="520" width="4" height="72" rx="2" fill="#bd5d3a"/>
  </g>
</svg>
